<mxfile host="www.draw.io" modified="2020-02-16T04:29:02.226Z" agent="Mozilla/5.0 (Macintosh; Intel Mac OS X 10_15_3) AppleWebKit/537.36 (KHTML, like Gecko) Chrome/80.0.3987.87 Safari/537.36" etag="4Z2rxbyC8UzTv9JfLUAt" version="12.7.0" type="github">
  <diagram id="IKqn_DyzjneiCq9encZr" name="Page-1">
    <mxGraphModel dx="1722" dy="962" grid="1" gridSize="10" guides="1" tooltips="1" connect="1" arrows="1" fold="1" page="1" pageScale="1" pageWidth="4681" pageHeight="3300" math="0" shadow="0">
      <root>
        <mxCell id="0"/>
        <mxCell id="1" parent="0"/>
        <mxCell id="taLNeXMTBGDC4jhJPtlL-2" value="Thread" style="swimlane;fontStyle=0;childLayout=stackLayout;horizontal=1;startSize=26;fillColor=none;horizontalStack=0;resizeParent=1;resizeParentMax=0;resizeLast=0;collapsible=1;marginBottom=0;" vertex="1" parent="1">
          <mxGeometry x="120" y="120" width="190" height="50" as="geometry"/>
        </mxCell>
        <mxCell id="taLNeXMTBGDC4jhJPtlL-3" value="+ threadlocals: ThreadLocalMap" style="text;strokeColor=none;fillColor=none;align=left;verticalAlign=top;spacingLeft=4;spacingRight=4;overflow=hidden;rotatable=0;points=[[0,0.5],[1,0.5]];portConstraint=eastwest;" vertex="1" parent="taLNeXMTBGDC4jhJPtlL-2">
          <mxGeometry y="26" width="190" height="24" as="geometry"/>
        </mxCell>
        <mxCell id="taLNeXMTBGDC4jhJPtlL-6" value="Looper" style="swimlane;fontStyle=0;childLayout=stackLayout;horizontal=1;startSize=26;fillColor=none;horizontalStack=0;resizeParent=1;resizeParentMax=0;resizeLast=0;collapsible=1;marginBottom=0;" vertex="1" parent="1">
          <mxGeometry x="360" y="120" width="230" height="50" as="geometry"/>
        </mxCell>
        <mxCell id="taLNeXMTBGDC4jhJPtlL-7" value="+ sThreadLocal: ThreadLocal&lt;Looper&gt;" style="text;strokeColor=none;fillColor=none;align=left;verticalAlign=top;spacingLeft=4;spacingRight=4;overflow=hidden;rotatable=0;points=[[0,0.5],[1,0.5]];portConstraint=eastwest;" vertex="1" parent="taLNeXMTBGDC4jhJPtlL-6">
          <mxGeometry y="26" width="230" height="24" as="geometry"/>
        </mxCell>
        <mxCell id="taLNeXMTBGDC4jhJPtlL-30" value="" style="endArrow=classic;html=1;entryX=0;entryY=0.5;entryDx=0;entryDy=0;exitX=1;exitY=0.5;exitDx=0;exitDy=0;" edge="1" parent="1" source="taLNeXMTBGDC4jhJPtlL-49" target="taLNeXMTBGDC4jhJPtlL-31">
          <mxGeometry width="50" height="50" relative="1" as="geometry">
            <mxPoint x="360" y="460" as="sourcePoint"/>
            <mxPoint x="170" y="540" as="targetPoint"/>
          </mxGeometry>
        </mxCell>
        <mxCell id="taLNeXMTBGDC4jhJPtlL-31" value="Entry0" style="rounded=0;whiteSpace=wrap;html=1;fillColor=none;" vertex="1" parent="1">
          <mxGeometry x="440" y="440" width="40" height="40" as="geometry"/>
        </mxCell>
        <mxCell id="taLNeXMTBGDC4jhJPtlL-32" value="Entry1" style="rounded=0;whiteSpace=wrap;html=1;fillColor=none;" vertex="1" parent="1">
          <mxGeometry x="480" y="440" width="40" height="40" as="geometry"/>
        </mxCell>
        <mxCell id="taLNeXMTBGDC4jhJPtlL-33" value="Entry2" style="rounded=0;whiteSpace=wrap;html=1;fillColor=none;" vertex="1" parent="1">
          <mxGeometry x="520" y="440" width="40" height="40" as="geometry"/>
        </mxCell>
        <mxCell id="taLNeXMTBGDC4jhJPtlL-34" value="&lt;font style=&quot;font-size: 11px&quot;&gt;Entry14&lt;/font&gt;" style="rounded=0;whiteSpace=wrap;html=1;fillColor=none;" vertex="1" parent="1">
          <mxGeometry x="640" y="440" width="40" height="40" as="geometry"/>
        </mxCell>
        <mxCell id="taLNeXMTBGDC4jhJPtlL-35" value="Entry15" style="rounded=0;whiteSpace=wrap;html=1;fillColor=none;" vertex="1" parent="1">
          <mxGeometry x="680" y="440" width="40" height="40" as="geometry"/>
        </mxCell>
        <mxCell id="taLNeXMTBGDC4jhJPtlL-36" value="......" style="text;html=1;strokeColor=none;fillColor=none;align=center;verticalAlign=middle;whiteSpace=wrap;rounded=0;" vertex="1" parent="1">
          <mxGeometry x="580" y="450" width="40" height="20" as="geometry"/>
        </mxCell>
        <mxCell id="taLNeXMTBGDC4jhJPtlL-38" value="" style="endArrow=classic;html=1;exitX=0.5;exitY=1;exitDx=0;exitDy=0;entryX=0.5;entryY=0;entryDx=0;entryDy=0;" edge="1" parent="1" source="taLNeXMTBGDC4jhJPtlL-31" target="taLNeXMTBGDC4jhJPtlL-39">
          <mxGeometry width="50" height="50" relative="1" as="geometry">
            <mxPoint x="120" y="710" as="sourcePoint"/>
            <mxPoint x="170" y="660" as="targetPoint"/>
          </mxGeometry>
        </mxCell>
        <mxCell id="taLNeXMTBGDC4jhJPtlL-39" value="&lt;b&gt;&lt;font style=&quot;font-size: 14px&quot;&gt;Entry&lt;/font&gt;&lt;/b&gt;" style="rounded=0;whiteSpace=wrap;html=1;" vertex="1" parent="1">
          <mxGeometry x="360" y="560" width="60" height="80" as="geometry"/>
        </mxCell>
        <mxCell id="taLNeXMTBGDC4jhJPtlL-40" value="key" style="rounded=0;whiteSpace=wrap;html=1;fillColor=#fff2cc;strokeColor=#000000;" vertex="1" parent="1">
          <mxGeometry x="420" y="560" width="60" height="40" as="geometry"/>
        </mxCell>
        <mxCell id="taLNeXMTBGDC4jhJPtlL-41" value="value" style="rounded=0;whiteSpace=wrap;html=1;fillColor=#dae8fc;strokeColor=#000000;" vertex="1" parent="1">
          <mxGeometry x="420" y="600" width="60" height="40" as="geometry"/>
        </mxCell>
        <mxCell id="taLNeXMTBGDC4jhJPtlL-42" value="" style="rounded=0;whiteSpace=wrap;html=1;strokeColor=#000000;fillColor=#dae8fc;" vertex="1" parent="1">
          <mxGeometry x="640" y="640" width="240" height="100" as="geometry"/>
        </mxCell>
        <mxCell id="taLNeXMTBGDC4jhJPtlL-45" value="&lt;b style=&quot;font-size: 16px&quot;&gt;Looper1&lt;/b&gt;" style="text;html=1;strokeColor=none;fillColor=none;align=center;verticalAlign=middle;whiteSpace=wrap;rounded=0;" vertex="1" parent="1">
          <mxGeometry x="670" y="660" width="40" height="20" as="geometry"/>
        </mxCell>
        <mxCell id="taLNeXMTBGDC4jhJPtlL-48" value="" style="rounded=0;whiteSpace=wrap;html=1;fillColor=#d5e8d4;strokeColor=#82b366;" vertex="1" parent="1">
          <mxGeometry x="160" y="406" width="200" height="80" as="geometry"/>
        </mxCell>
        <mxCell id="taLNeXMTBGDC4jhJPtlL-49" value="&lt;span style=&quot;text-align: left ; white-space: nowrap&quot;&gt;threadlocals: ThreadLocalMap&lt;/span&gt;" style="rounded=0;whiteSpace=wrap;html=1;" vertex="1" parent="1">
          <mxGeometry x="175" y="446" width="175" height="30" as="geometry"/>
        </mxCell>
        <mxCell id="taLNeXMTBGDC4jhJPtlL-50" value="&lt;b style=&quot;font-size: 16px&quot;&gt;Thread1&lt;/b&gt;" style="text;html=1;strokeColor=none;fillColor=none;align=center;verticalAlign=middle;whiteSpace=wrap;rounded=0;" vertex="1" parent="1">
          <mxGeometry x="180" y="416" width="40" height="20" as="geometry"/>
        </mxCell>
        <mxCell id="taLNeXMTBGDC4jhJPtlL-51" value="" style="rounded=0;whiteSpace=wrap;html=1;strokeColor=#000000;fillColor=#dae8fc;" vertex="1" parent="1">
          <mxGeometry x="670" y="700" width="240" height="100" as="geometry"/>
        </mxCell>
        <mxCell id="taLNeXMTBGDC4jhJPtlL-52" value="&lt;span style=&quot;text-align: left&quot;&gt;sThreadLocal: ThreadLocal&amp;lt;Looper&amp;gt;&lt;/span&gt;" style="rounded=0;whiteSpace=wrap;html=1;strokeColor=#000000;fillColor=#fff2cc;" vertex="1" parent="1">
          <mxGeometry x="670" y="700" width="210" height="40" as="geometry"/>
        </mxCell>
        <mxCell id="taLNeXMTBGDC4jhJPtlL-53" value="&lt;b style=&quot;font-size: 16px&quot;&gt;Looper2&lt;/b&gt;" style="text;html=1;strokeColor=none;fillColor=none;align=center;verticalAlign=middle;whiteSpace=wrap;rounded=0;" vertex="1" parent="1">
          <mxGeometry x="700" y="760" width="40" height="20" as="geometry"/>
        </mxCell>
        <mxCell id="taLNeXMTBGDC4jhJPtlL-54" value="" style="endArrow=classic;html=1;entryX=0;entryY=0.5;entryDx=0;entryDy=0;exitX=1;exitY=0.5;exitDx=0;exitDy=0;" edge="1" parent="1" target="taLNeXMTBGDC4jhJPtlL-55" source="taLNeXMTBGDC4jhJPtlL-66">
          <mxGeometry width="50" height="50" relative="1" as="geometry">
            <mxPoint x="360" y="920" as="sourcePoint"/>
            <mxPoint x="170" y="1000" as="targetPoint"/>
          </mxGeometry>
        </mxCell>
        <mxCell id="taLNeXMTBGDC4jhJPtlL-55" value="Entry0" style="rounded=0;whiteSpace=wrap;html=1;fillColor=none;" vertex="1" parent="1">
          <mxGeometry x="440" y="900" width="40" height="40" as="geometry"/>
        </mxCell>
        <mxCell id="taLNeXMTBGDC4jhJPtlL-56" value="Entry1" style="rounded=0;whiteSpace=wrap;html=1;fillColor=none;" vertex="1" parent="1">
          <mxGeometry x="480" y="900" width="40" height="40" as="geometry"/>
        </mxCell>
        <mxCell id="taLNeXMTBGDC4jhJPtlL-57" value="Entry2" style="rounded=0;whiteSpace=wrap;html=1;fillColor=none;" vertex="1" parent="1">
          <mxGeometry x="520" y="900" width="40" height="40" as="geometry"/>
        </mxCell>
        <mxCell id="taLNeXMTBGDC4jhJPtlL-58" value="&lt;font style=&quot;font-size: 11px&quot;&gt;Entry14&lt;/font&gt;" style="rounded=0;whiteSpace=wrap;html=1;fillColor=none;" vertex="1" parent="1">
          <mxGeometry x="640" y="900" width="40" height="40" as="geometry"/>
        </mxCell>
        <mxCell id="taLNeXMTBGDC4jhJPtlL-59" value="Entry15" style="rounded=0;whiteSpace=wrap;html=1;fillColor=none;" vertex="1" parent="1">
          <mxGeometry x="680" y="900" width="40" height="40" as="geometry"/>
        </mxCell>
        <mxCell id="taLNeXMTBGDC4jhJPtlL-60" value="......" style="text;html=1;strokeColor=none;fillColor=none;align=center;verticalAlign=middle;whiteSpace=wrap;rounded=0;" vertex="1" parent="1">
          <mxGeometry x="580" y="910" width="40" height="20" as="geometry"/>
        </mxCell>
        <mxCell id="taLNeXMTBGDC4jhJPtlL-61" value="" style="endArrow=classic;html=1;exitX=0.5;exitY=0;exitDx=0;exitDy=0;entryX=0.5;entryY=1;entryDx=0;entryDy=0;" edge="1" parent="1" source="taLNeXMTBGDC4jhJPtlL-55" target="taLNeXMTBGDC4jhJPtlL-62">
          <mxGeometry width="50" height="50" relative="1" as="geometry">
            <mxPoint x="120" y="1170" as="sourcePoint"/>
            <mxPoint x="170" y="1120" as="targetPoint"/>
          </mxGeometry>
        </mxCell>
        <mxCell id="taLNeXMTBGDC4jhJPtlL-62" value="&lt;b&gt;&lt;font style=&quot;font-size: 14px&quot;&gt;Entry&lt;/font&gt;&lt;/b&gt;" style="rounded=0;whiteSpace=wrap;html=1;" vertex="1" parent="1">
          <mxGeometry x="360" y="720" width="60" height="80" as="geometry"/>
        </mxCell>
        <mxCell id="taLNeXMTBGDC4jhJPtlL-63" value="key" style="rounded=0;whiteSpace=wrap;html=1;fillColor=#fff2cc;strokeColor=#000000;" vertex="1" parent="1">
          <mxGeometry x="420" y="720" width="60" height="40" as="geometry"/>
        </mxCell>
        <mxCell id="taLNeXMTBGDC4jhJPtlL-64" value="value" style="rounded=0;whiteSpace=wrap;html=1;fillColor=#dae8fc;strokeColor=#000000;" vertex="1" parent="1">
          <mxGeometry x="420" y="760" width="60" height="40" as="geometry"/>
        </mxCell>
        <mxCell id="taLNeXMTBGDC4jhJPtlL-65" value="" style="rounded=0;whiteSpace=wrap;html=1;fillColor=#d5e8d4;strokeColor=#82b366;" vertex="1" parent="1">
          <mxGeometry x="160" y="864" width="200" height="80" as="geometry"/>
        </mxCell>
        <mxCell id="taLNeXMTBGDC4jhJPtlL-66" value="&lt;span style=&quot;text-align: left ; white-space: nowrap&quot;&gt;threadlocals: ThreadLocalMap&lt;/span&gt;" style="rounded=0;whiteSpace=wrap;html=1;" vertex="1" parent="1">
          <mxGeometry x="175" y="904" width="175" height="30" as="geometry"/>
        </mxCell>
        <mxCell id="taLNeXMTBGDC4jhJPtlL-67" value="&lt;b style=&quot;font-size: 16px&quot;&gt;Thread2&lt;/b&gt;" style="text;html=1;strokeColor=none;fillColor=none;align=center;verticalAlign=middle;whiteSpace=wrap;rounded=0;" vertex="1" parent="1">
          <mxGeometry x="180" y="874" width="40" height="20" as="geometry"/>
        </mxCell>
        <mxCell id="taLNeXMTBGDC4jhJPtlL-68" value="" style="curved=1;endArrow=classic;html=1;entryX=1;entryY=0.5;entryDx=0;entryDy=0;exitX=0.5;exitY=0;exitDx=0;exitDy=0;" edge="1" parent="1" source="taLNeXMTBGDC4jhJPtlL-42" target="taLNeXMTBGDC4jhJPtlL-41">
          <mxGeometry width="50" height="50" relative="1" as="geometry">
            <mxPoint x="780" y="700" as="sourcePoint"/>
            <mxPoint x="170" y="980" as="targetPoint"/>
            <Array as="points">
              <mxPoint x="750" y="570"/>
            </Array>
          </mxGeometry>
        </mxCell>
        <mxCell id="taLNeXMTBGDC4jhJPtlL-70" value="" style="endArrow=classic;html=1;entryX=1;entryY=0.5;entryDx=0;entryDy=0;" edge="1" parent="1" source="taLNeXMTBGDC4jhJPtlL-51" target="taLNeXMTBGDC4jhJPtlL-64">
          <mxGeometry width="50" height="50" relative="1" as="geometry">
            <mxPoint x="120" y="1030" as="sourcePoint"/>
            <mxPoint x="170" y="980" as="targetPoint"/>
          </mxGeometry>
        </mxCell>
        <mxCell id="taLNeXMTBGDC4jhJPtlL-71" value="" style="endArrow=classic;html=1;entryX=1;entryY=0.5;entryDx=0;entryDy=0;exitX=0;exitY=0.5;exitDx=0;exitDy=0;" edge="1" parent="1" source="taLNeXMTBGDC4jhJPtlL-52" target="taLNeXMTBGDC4jhJPtlL-63">
          <mxGeometry width="50" height="50" relative="1" as="geometry">
            <mxPoint x="680" y="771.6129032258063" as="sourcePoint"/>
            <mxPoint x="490" y="790.0000000000002" as="targetPoint"/>
          </mxGeometry>
        </mxCell>
        <mxCell id="taLNeXMTBGDC4jhJPtlL-72" value="" style="curved=1;endArrow=classic;html=1;entryX=1;entryY=0.5;entryDx=0;entryDy=0;" edge="1" parent="1" target="taLNeXMTBGDC4jhJPtlL-40">
          <mxGeometry width="50" height="50" relative="1" as="geometry">
            <mxPoint x="670" y="720" as="sourcePoint"/>
            <mxPoint x="490" y="630" as="targetPoint"/>
            <Array as="points">
              <mxPoint x="600" y="680"/>
            </Array>
          </mxGeometry>
        </mxCell>
      </root>
    </mxGraphModel>
  </diagram>
</mxfile>
